<svg xmlns="http://www.w3.org/2000/svg" version="1.1" xmlns:xlink="http://www.w3.org/1999/xlink" xmlns:svgjs="http://svgjs.dev/svgjs" width="100%" height="100%" viewBox="0 0 1000 600"><rect width="1000" height="600" x="0" y="0" fill="#ffffff"/><g><circle r="166.66666666666666" cx="318.0513559977213" cy="340.2736026955979" fill="#" transform="matrix(0.8257108955536193,0,0,0.8257108955536194,0,19.03237915196783)"/><path d="M363.17133661586524 415.27362137850554L363.17133661586524 415.27362137850554Q354.1865148407477 415.27362137850554 347.7478005986335 412.4582140102807Q341.3090863565193 409.64280664205586 335.84964424248335 405.23608206570395Q330.39020212844736 400.82935748935205 324.563532966382 396.0554058649708Q318.7613456075187 391.3059360437915 311.1719866149126 387.41332933468067L311.1719866149126 387.41332933468067Q305.54117187846293 384.59792196645583 297.7804402634432 382.8352321359151L297.7804402634432 382.8352321359151Q290.1910812708371 381.07254230537427 282.9689493262604 378.526434772371Q275.7468173816836 375.9558454361657 270.8014931348887 372.0877205302568L270.8014931348887 372.0877205302568Q260.42120857725973 363.9842436704096 254.69246662800225 351.816787479038Q248.96372467874477 339.6493312876663 248.96372467874477 325.9150396913695L248.96372467874477 325.9150396913695Q248.96372467874477 311.2749213766004 253.98249433514556 299.9888101004991Q259.00126399154635 288.70269882439777 267.2761134738072 280.96644901258Q275.57544475926994 273.2057173975602 285.53953866246565 269.2396652788435Q295.4791507624594 265.2736131601268 305.17394483043364 265.2736131601268L305.17394483043364 265.2736131601268Q318.39411855948936 265.2736131601268 328.8968121331281 270.02308298130606Q339.37502390356485 274.7970346056873 346.86645568336314 282.90051146553446Q354.3578874631613 291.00398832538156 358.2504941722723 301.3108274734047Q362.11861907818115 311.61766662142776 362.11861907818115 322.73240527511535L362.11861907818115 322.73240527511535Q362.11861907818115 336.12395162658476 357.44259466660776 347.23869028027235Q352.76657025503425 358.328947130758 344.58964798558134 366.2610513681915Q336.3882439129263 374.1931556056249 325.8121049296817 378.4285075595632L325.8121049296817 378.4285075595632Q324.93076001441136 378.79573460759246 323.2415155934765 379.23640706522764Q321.5767529757435 379.67707952286287 318.58997298510496 379.84845214527655L318.58997298510496 379.84845214527655L318.58997298510496 380.1911973901039Q323.3394428062843 380.7297970605469 327.20756771219317 382.6638595135014L327.20756771219317 382.6638595135014Q335.84964424248335 386.8992114674396 343.1697033998679 392.5300262038893Q350.48976255725245 398.1853227435409 357.0998494217804 402.3227474846713Q363.7099362863082 406.4601722258017 370.0507233156146 406.4601722258017L370.0507233156146 406.4601722258017Q373.4047303542824 406.11742698097436 374.80019313679384 404.35473715043355Q376.2201377225073 402.5920473198928 376.2201377225073 400.29075781890907L376.2201377225073 400.29075781890907Q376.2201377225073 396.2267784873845 373.13543051906095 392.5300262038893Q370.0507233156146 388.83327392039405 364.59128120157857 388.66190129798036L364.59128120157857 388.66190129798036Q364.0526815311356 386.18923917458295 366.525343654533 383.37383180635806Q368.99800577793053 380.5584244381333 374.6288205143802 380.5584244381333L374.6288205143802 380.5584244381333Q376.56288296733464 380.5584244381333 379.57414476117515 381.9538872206447Q382.5609247518137 383.37383180635806 384.8622142527974 386.4585390098044Q387.13902195057926 389.54324621325077 387.13902195057926 394.6599430824594L387.13902195057926 394.6599430824594Q387.13902195057926 400.11938519649533 383.5401968798918 404.6974823952609Q379.9168900060025 409.2755795940265 374.35952067915866 412.1889141750592Q368.8266331555168 415.10224875609185 363.17133661586524 415.27362137850554ZM305.00257220801996 376.323072484195L305.00257220801996 376.323072484195Q314.35462103116674 376.323072484195 321.2340077309161 371.98979331744897Q328.0889126274636 367.68099595390487 332.4956372038155 360.0916369612988Q336.90236178016744 352.52675977189466 339.0322786587375 342.9054111135263Q341.13771373410566 333.30854425836 341.13771373410566 322.73240527511535L341.13771373410566 322.73240527511535Q341.13771373410566 309.5122315460596 337.1716616153889 298.1526748603525Q333.2056094966722 286.76863637144334 325.2000598496329 279.81580426208814Q317.17002839939164 272.8384903495309 305.00257220801996 272.8384903495309L305.00257220801996 272.8384903495309Q292.6637433942346 272.8384903495309 284.829566369609 280.1585495069155Q276.97090754178134 287.47860866430005 273.37208247109396 299.3767650204502Q269.7487755972046 311.2749213766004 269.7487755972046 325.3764400209265L269.7487755972046 325.3764400209265Q269.7487755972046 338.5966137499822 273.54345509350765 350.2254702709109Q277.3381345898107 361.8543267918396 285.17231161443635 369.10094053961825Q293.0309704422639 376.323072484195 305.00257220801996 376.323072484195Z " fill="#74deb3" transform="matrix(0.8257108955536193,0,0,0.8257108955536194,0,19.03237915196783)"/><path d="M624.0095554625406 414.01925239527026L624.0095554625406 414.01925239527026Q606.9363859411278 414.01925239527026 596.9015434469096 403.7405074793176Q586.8667009526914 393.461762563365 586.8667009526914 376.66733866679164L586.8667009526914 376.66733866679164L586.8667009526914 330.2561921310327Q586.8667009526914 325.72657572739257 586.5182689216422 321.8241369796411Q586.1349936874881 317.9565414349945 583.6262830639336 315.5523604207547Q581.117572440379 313.1830226096199 574.0792454131843 313.1830226096199L574.0792454131843 313.1830226096199Q571.8144372113643 313.1830226096199 569.9329042436984 312.55584495373125Q568.0513712760325 311.92866729784265 568.0513712760325 308.1656013625108L568.0513712760325 308.1656013625108Q568.0513712760325 304.40253542717903 572.0931828362036 303.63598495887067L572.0931828362036 303.63598495887067Q583.6262830639336 301.89382480362445 589.7586868104001 300.1516646483783Q595.9259337599717 298.3746612900272 599.1663516487297 297.1203059782499Q602.4416127405925 295.8659506664726 604.9503233641472 295.62204824473815L604.9503233641472 295.62204824473815Q606.9363859411278 295.3781458230037 608.3301140653248 296.38859871304646Q609.7238421895217 297.36420839998436 609.7238421895217 300.39556707011275L609.7238421895217 300.39556707011275L609.7238421895217 376.3885930419522Q609.7238421895217 384.68127538092415 613.3475353124338 389.9425990497677Q616.9712284353459 395.20392271861124 622.5112977290289 397.7126333421658Q628.0165238196068 400.22134396572034 633.8004955350243 400.22134396572034L633.8004955350243 400.22134396572034Q642.5809827174651 400.22134396572034 649.0966616980859 397.08545568627716Q655.6123406787067 393.949567406834 659.6193090357731 389.8380694404529Q663.6611205959442 385.69172827096696 664.9154759077214 382.93911522567794L664.9154759077214 382.93911522567794L664.9154759077214 330.2561921310327Q664.9154759077214 325.72657572739257 664.5322006735673 321.8241369796411Q664.1489254394131 317.9565414349945 661.6402148158586 315.5523604207547Q659.1315041923041 313.1830226096199 652.0931771651094 313.1830226096199L652.0931771651094 313.1830226096199Q649.8632121663943 313.1830226096199 647.9816791987283 312.55584495373125Q646.1001462310625 311.92866729784265 646.1001462310625 308.1656013625108L646.1001462310625 308.1656013625108Q646.1001462310625 304.40253542717903 650.1071145881288 303.63598495887067L650.1071145881288 303.63598495887067Q661.6402148158586 301.89382480362445 667.7726185623253 300.1516646483783Q673.9398655118969 298.3746612900272 677.1802834006547 297.1203059782499Q680.4555444925177 295.8659506664726 682.9642551160722 295.62204824473815L682.9642551160722 295.62204824473815Q684.9851608961578 295.3781458230037 686.3440458172498 296.38859871304646Q687.7377739414468 297.36420839998436 687.7377739414468 300.39556707011275L687.7377739414468 300.39556707011275L687.7377739414468 387.18998600447867Q687.7377739414468 401.9983473240714 707.5635565081486 401.9983473240714L707.5635565081486 401.9983473240714Q710.3161695534376 401.9983473240714 711.047876818641 403.49660505758317Q711.8144272869494 404.99486279109493 711.8144272869494 406.77186614944605L711.8144272869494 406.77186614944605Q711.8144272869494 410.2561864599384 707.5635565081486 411.0227369282468L707.5635565081486 411.0227369282468L667.1454409064366 413.7753499735358Q665.4032807511904 413.7753499735358 665.159378329456 412.27709224002405Q664.9154759077214 410.7788345065123 664.9154759077214 408.7579287264267L664.9154759077214 408.7579287264267L664.9154759077214 394.7161178751423L664.3928278611477 394.7161178751423Q659.6193090357731 399.24573427878244 654.2534557576147 403.7405074793176Q648.8527592763514 408.27012388295776 641.7099026398421 411.1621097406665Q634.5322028002277 414.01925239527026 624.0095554625406 414.01925239527026ZM780.8039694346991 414.01925239527026L780.8039694346991 414.01925239527026Q763.2429950698173 414.01925239527026 750.0722642961559 405.76141325940324Q736.9015335224947 397.4687309204313 729.6193040735656 384.1934705374552Q722.3370746246364 370.8833669513742 722.3370746246364 355.831103210047L722.3370746246364 355.831103210047Q722.3370746246364 341.02274189045426 727.6332414965849 329.4896416627244Q732.8945651654284 317.9565414349945 741.5356795354496 310.18650714259644Q750.2116371085757 302.3816296470934 760.4903820245283 298.3746612900272Q770.7691269404809 294.3676929329609 780.8039694346991 294.3676929329609L780.8039694346991 294.3676929329609Q798.3649437995807 294.3676929329609 811.5356745732421 302.6603752719328Q824.7064053469035 310.91821440779984 831.9886347958326 324.2283179938808Q839.2708642447617 337.5035783768569 839.2708642447617 352.5558421181841L839.2708642447617 352.5558421181841Q839.2708642447617 367.3642034377769 833.8701677634986 378.89730366550674Q828.4694712822352 390.46524709634156 819.8283569122141 398.2352813887396Q811.1523993390879 406.0053156811377 800.8736544231353 410.012284038204Q790.5949095071827 414.01925239527026 780.8039694346991 414.01925239527026ZM780.8039694346991 404.7509603693605L780.8039694346991 404.7509603693605Q793.1036201307372 404.7509603693605 800.2464767672467 397.4687309204313Q807.3893334037562 390.18650147150214 810.5252216831993 378.27012600961814Q813.6611099626425 366.3537505477341 813.6611099626425 352.5558421181841L813.6611099626425 352.5558421181841Q813.6611099626425 339.28058173520805 810.4206920738845 328.2352863509471Q807.1454309820217 317.18999096668614 799.8632015330925 310.4304095643309Q792.5809720841634 303.63598495887067 780.8039694346991 303.63598495887067L780.8039694346991 303.63598495887067Q768.5043187386608 303.63598495887067 761.2220892897317 310.81368479848504Q753.9747030439075 317.9565414349945 750.9433443737792 329.62901447514406Q747.9468289067556 341.2666443121887 747.9468289067556 355.34329836657804L747.9468289067556 355.34329836657804Q747.9468289067556 368.37465632781965 751.0827171861988 379.6638541338151Q754.218605465642 390.9530519398105 761.5008349145711 397.85200615458547Q768.7482211603954 404.7509603693605 780.8039694346991 404.7509603693605ZM902.4764346770941 415.2736077070475L902.4764346770941 415.2736077070475Q894.9503028064305 415.2736077070475 888.1907214040751 411.51054177171574Q881.3962967986149 407.7474758363839 877.0060532073944 399.97744154398583Q872.6158096161741 392.20740725158777 872.6158096161741 380.4304046021234L872.6158096161741 380.4304046021234L872.6158096161741 306.6673436289991L858.0861939214207 307.15514847246806Q856.3091905630696 307.15514847246806 855.4381104854465 305.796263551376Q854.5670304078234 304.40253542717903 854.5670304078234 302.6603752719328L854.5670304078234 302.6603752719328Q854.5670304078234 297.6429540248237 858.0861939214207 296.8764035565154L858.0861939214207 296.8764035565154Q867.3544859473305 295.1342434012692 872.1280047727051 290.9879022317832Q876.9015235980797 286.8415610622973 879.514763830949 281.05758934687987Q882.1628472669233 275.30846083456737 884.4276554687433 268.5140362291072L884.4276554687433 268.5140362291072Q885.1593627339468 266.52797365212655 886.6576204674584 265.9007959962379Q888.1907214040751 265.27361834034923 889.9328815593213 265.27361834034923L889.9328815593213 265.27361834034923Q891.4311392928331 265.27361834034923 893.312672260499 266.0053256055527Q895.194205228165 266.771876073861 895.194205228165 268.7927818539466L895.194205228165 268.7927818539466L893.4520450729187 297.36420839998436L922.7900220872648 295.62204824473815Q925.0548302890849 295.3781458230037 925.8213807573932 296.8764035565154Q926.5530880225966 298.3746612900272 926.5530880225966 300.39556707011275L926.5530880225966 300.39556707011275Q926.5530880225966 302.90427769366727 925.6820079449735 305.41298831722185Q924.8109278673503 307.92169894077637 923.5565725555732 307.92169894077637L923.5565725555732 307.92169894077637L895.4381076498994 307.15514847246806L895.4381076498994 383.4269200691469Q895.4381076498994 390.709149518076 898.5739959293426 396.7370236552279Q901.7098842087858 402.73005458927486 910.0025665477576 402.73005458927486L910.0025665477576 402.73005458927486Q912.7551795930467 402.73005458927486 916.274343106644 402.24224974580585Q919.7935066202413 401.75444490233696 923.8004749773075 399.97744154398583L923.8004749773075 399.97744154398583Q924.8109278673503 399.4896367005169 925.8213807573932 399.1063614663627Q926.7969904443312 398.7230862322086 927.8074433343738 398.7230862322086L927.8074433343738 398.7230862322086Q929.8283491144595 398.7230862322086 930.8388020045022 400.36071677814Q931.8144116914401 401.9983473240714 932.5809621597484 403.7405074793176L932.5809621597484 403.7405074793176Q933.3475126280568 406.0053156811377 931.3266068479711 407.259670992915L931.3266068479711 407.259670992915Q923.5565725555732 412.27709224002405 917.0408935749523 413.7753499735358Q910.4903713912265 415.2736077070475 902.4764346770941 415.2736077070475ZM1012.3718972700246 414.01925239527026L1012.3718972700246 414.01925239527026Q993.0339195467918 414.01925239527026 979.8631887731304 405.76141325940324Q966.6924579994691 397.4687309204313 960.1767790188484 383.67082249088133Q953.6611000382276 369.8729140613314 953.6611000382276 353.566295008227L953.6611000382276 353.566295008227Q953.6611000382276 342.520999623966 957.5286955828742 332.1377250986986Q961.4311343306256 321.7196073703263 968.7133637795548 313.0436497972002Q975.9955932284838 304.40253542717903 986.2743381444365 299.38511418006993Q996.5530830603891 294.3676929329609 1009.5844410216307 294.3676929329609L1009.5844410216307 294.3676929329609Q1032.6854846801953 294.3676929329609 1044.357957720345 306.28406839484495Q1055.9955875573896 318.20044385672895 1057.7725909157407 336.5279686899191L1057.7725909157407 336.5279686899191Q1057.7725909157407 345.3084558723599 1052.8596992779467 348.0610689176489Q1047.9816508432573 350.81368196293795 1040.211616550859 350.81368196293795L1040.211616550859 350.81368196293795L979.2360111172418 350.81368196293795Q979.2360111172418 365.37814086079624 983.2429794743081 376.7718682761064Q987.2847910344793 388.2004388945215 995.9259054045006 394.855490687562Q1004.5670197745217 401.47569927749754 1018.8875762506455 401.47569927749754L1018.8875762506455 401.47569927749754Q1029.4102235883324 401.47569927749754 1036.936355458996 396.98092607696236Q1044.4624873296598 392.4513096733222 1051.5008143568543 381.1621118673268L1051.5008143568543 381.1621118673268Q1053.486876933835 378.6534012437723 1057.0060404474325 380.91820944559237L1057.0060404474325 380.91820944559237Q1059.026946227518 381.9286623356351 1059.5147510709871 384.05409772503555Q1060.0373991175607 386.1795331144359 1059.026946227518 387.6777908479476L1059.026946227518 387.6777908479476Q1051.25691193512 399.97744154398583 1039.4450660825505 407.0157685711805Q1027.6680634330864 414.01925239527026 1012.3718972700246 414.01925239527026ZM979.2360111172418 341.2666443121887L979.2360111172418 341.2666443121887L1020.1419315624228 341.2666443121887Q1026.1698056995747 341.2666443121887 1029.7934988224868 338.8973065010539Q1033.4171919453988 336.5279686899191 1033.6959375702384 330.7439969745016L1033.6959375702384 330.7439969745016Q1033.6959375702384 319.94260401197516 1027.7725930424012 311.54539206368844Q1021.884091717669 303.1481801154018 1009.5844410216307 303.1481801154018L1009.5844410216307 303.1481801154018Q997.040887903858 303.1481801154018 988.6436759555713 313.1830226096199Q980.2464640072847 323.21786510383805 979.2360111172418 341.2666443121887Z " fill="#74deb3" transform="matrix(0.8257108955536193,0,0,0.8257108955536194,0,19.03237915196783)"/></g></svg>